<?xml version="1.0" encoding="UTF-8"?>
<!DOCTYPE svg PUBLIC "-//W3C//DTD SVG 1.1//EN" "http://www.w3.org/Graphics/SVG/1.1/DTD/svg11.dtd">
<!-- Creator: CorelDRAW X8 -->
<svg xmlns="http://www.w3.org/2000/svg" xml:space="preserve" width="2.02047cm" height="0.34368cm" version="1.1" style="shape-rendering:geometricPrecision; text-rendering:geometricPrecision; image-rendering:optimizeQuality; fill-rule:evenodd; clip-rule:evenodd"
viewBox="0 0 2208 376"
 >
 <defs>
  <style type="text/css">
   <![CDATA[
    .fil1 {fill:#898989;fill-rule:nonzero}
    .fil0 {fill:#114776;fill-rule:nonzero}
   ]]>
  </style>
 </defs>
 <g id="Слой_x0020_1">
  <metadata id="CorelCorpID_0Corel-Layer"/>
  <path class="fil0" d="M129 303c-41,0 -72,-10 -95,-29 -23,-19 -34,-46 -34,-81 0,-55 18,-100 53,-134 35,-35 80,-52 134,-52 20,0 39,2 57,5 17,4 35,10 54,20l-16 67 -8 0c-15,-15 -30,-25 -43,-30 -14,-6 -29,-9 -45,-9 -17,0 -32,4 -46,10 -13,7 -25,16 -34,28 -9,11 -16,24 -21,39 -5,15 -8,31 -8,47 0,23 6,40 19,50 12,11 32,17 60,17 3,0 6,-1 9,-1 4,0 7,0 9,0l13 -56 -56 0 12 -54 131 0 -32 141c-17,6 -35,11 -54,15 -19,5 -39,7 -59,7zm311 -303l-69 297 -69 0 69 -297 69 0zm243 161c0,20 -4,39 -10,57 -7,17 -17,32 -29,45 -13,13 -27,23 -44,30 -17,7 -37,11 -59,11 -32,0 -56,-8 -73,-23 -18,-15 -26,-37 -26,-64 0,-19 3,-37 10,-54 6,-17 15,-32 28,-45 12,-13 27,-23 44,-31 18,-7 38,-11 60,-11 32,0 56,8 73,23 17,15 26,36 26,62zm-90 70c6,-9 11,-18 14,-29 3,-10 4,-23 4,-38 0,-13 -3,-23 -8,-30 -6,-7 -15,-11 -28,-11 -9,0 -18,2 -25,7 -8,5 -14,11 -20,20 -5,8 -9,18 -12,30 -3,12 -5,24 -5,36 0,15 4,25 10,31 7,7 16,10 27,10 8,0 16,-3 24,-7 8,-5 14,-11 19,-19zm363 -80c0,20 -3,39 -9,57 -6,18 -15,34 -26,48 -11,14 -24,25 -39,33 -15,8 -32,12 -50,12 -12,0 -22,-1 -32,-3 -9,-3 -18,-7 -25,-12l-5 11 -66 0 68 -297 69 0 -24 105c12,-8 24,-15 35,-20 11,-5 24,-8 37,-8 22,0 39,7 50,20 12,13 17,31 17,54zm-72 13c0,-12 -3,-21 -8,-27 -5,-6 -14,-10 -27,-10 -7,0 -13,2 -20,4 -6,2 -13,5 -20,9l-25 108c4,2 9,3 14,4 5,1 11,2 17,2 21,0 38,-9 50,-25 13,-17 19,-39 19,-65zm246 32c-12,1 -24,2 -34,3 -11,2 -20,4 -28,7 -8,2 -14,6 -18,11 -4,5 -6,12 -6,21 0,7 3,12 8,15 6,3 14,5 24,5 7,0 14,-2 22,-5 8,-3 15,-7 22,-12l10 -45zm-18 78c-4,3 -9,7 -16,11 -6,3 -11,7 -17,9 -7,3 -13,5 -20,7 -6,1 -15,2 -26,2 -18,0 -32,-5 -44,-15 -11,-10 -16,-23 -16,-39 0,-17 4,-32 12,-43 8,-12 19,-21 35,-28 15,-7 33,-12 53,-15 20,-3 42,-5 66,-6 0,-1 1,-2 1,-4 1,-2 1,-4 1,-6 0,-9 -5,-15 -13,-19 -8,-3 -21,-5 -38,-5 -11,0 -23,2 -37,5 -14,4 -24,7 -31,10l-6 0 10 -51c8,-2 20,-4 37,-7 17,-2 34,-3 50,-3 34,0 59,4 74,13 16,9 24,22 24,41 0,2 0,5 -1,10 0,4 -1,7 -2,10l-33 146 -68 0 5 -23zm264 -274l-69 297 -69 0 69 -297 69 0z"/>
  <path class="fil1" d="M1681 91c0,34 -14,62 -42,82 -28,21 -67,31 -118,31l-15 0 12 -53 14 0c22,0 40,-5 52,-14 13,-9 19,-22 19,-38 0,-11 -4,-20 -12,-25 -8,-5 -20,-8 -36,-8l-17 0 13 -53 15 0c19,0 35,1 49,4 14,2 25,7 35,13 10,6 18,14 23,24 5,10 8,23 8,37zm-212 206l-71 0 66 -284 71 0 -66 284zm366 -101c-13,1 -24,2 -35,3 -11,2 -20,4 -27,7 -8,2 -14,6 -18,11 -4,5 -6,12 -6,21 0,7 2,12 8,15 5,3 13,5 24,5 6,0 14,-2 21,-5 8,-3 16,-7 22,-12l11 -45zm-18 78c-5,3 -10,7 -16,11 -6,3 -12,7 -17,9 -7,3 -14,5 -20,7 -6,1 -15,2 -26,2 -18,0 -33,-5 -44,-15 -11,-10 -17,-23 -17,-39 0,-17 4,-32 12,-43 8,-12 20,-21 36,-28 15,-7 32,-12 52,-15 21,-3 43,-5 67,-6 0,-1 0,-2 1,-4 0,-2 0,-4 0,-6 0,-9 -4,-15 -12,-19 -9,-3 -21,-5 -38,-5 -11,0 -24,2 -37,5 -14,4 -24,7 -31,10l-7 0 11 -51c8,-2 20,-4 37,-7 17,-2 33,-3 50,-3 34,0 58,4 74,13 16,9 23,22 23,41 0,2 0,5 0,10 -1,4 -1,7 -2,10l-34 146 -67 0 5 -23zm204 102l-75 0 54 -83 -35 -210 70 0 19 140 81 -140 73 0 -187 293z"/>
 </g>
</svg>
