<?xml version="1.0" encoding="UTF-8" standalone="no"?>
<svg
   xmlns:dc="http://purl.org/dc/elements/1.1/"
   xmlns:cc="http://creativecommons.org/ns#"
   xmlns:rdf="http://www.w3.org/1999/02/22-rdf-syntax-ns#"
   xmlns="http://www.w3.org/2000/svg"
   xmlns:sodipodi="http://sodipodi.sourceforge.net/DTD/sodipodi-0.dtd"
   xmlns:inkscape="http://www.inkscape.org/namespaces/inkscape"
   id="Layer_1"
   style="enable-background:new 0 0 128 128;"
   version="1.1"
   viewBox="0 0 128 128"
   xml:space="preserve"
   sodipodi:docname="wallet.svg"
   inkscape:version="0.92.1 r15371"><metadata
     id="metadata12"><rdf:RDF><cc:Work
         rdf:about=""><dc:format>image/svg+xml</dc:format><dc:type
           rdf:resource="http://purl.org/dc/dcmitype/StillImage" /></cc:Work></rdf:RDF></metadata><defs
     id="defs10" /><sodipodi:namedview
     pagecolor="#ffffff"
     bordercolor="#666666"
     borderopacity="100"
     objecttolerance="10"
     gridtolerance="10"
     guidetolerance="10"
     inkscape:pageopacity="0"
     inkscape:pageshadow="2"
     inkscape:window-width="1920"
     inkscape:window-height="1018"
     id="namedview8"
     showgrid="false"
     inkscape:zoom="3.6875"
     inkscape:cx="67.962293"
     inkscape:cy="53.63516"
     inkscape:window-x="-8"
     inkscape:window-y="-8"
     inkscape:window-maximized="1"
     inkscape:current-layer="XMLID_10_" /><style
     type="text/css"
     id="style2">
	.st0{fill-rule:evenodd;clip-rule:evenodd;}
	.st1{fill-rule:evenodd;clip-rule:evenodd;fill:#7ACED7;}
</style><g
     id="XMLID_10_"><path
       class="st0"
       d="m 124.84722,32.090066 v 77.462424 c 0,2.06566 -1.72278,3.75575 -3.82838,3.75575 H 16.12137 c -7.5610397,0 -13.8068605,-6.10314 -13.7821488,-13.520711 L 2.598772,21.87951 c 0.024712,-7.417574 6.2211091,-9.701303 13.782149,-9.701303 h 84.989929 c 2.1056,0 3.8716,1.690525 3.82837,3.755754 l -0.25955,12.400352 h 16.07917 c 2.1056,0 3.82838,1.690089 3.82838,3.755753 z m -3.82838,0 H 101.11129 94.411636 16.12137 c -3.924084,0 -7.984432,-1.086941 -10.4728756,-3.715968 L 6.167596,99.693634 c 0.038953,5.351806 4.49834,9.764956 9.953774,9.764956 h 104.89747 z m -17.51482,32.205586 c -4.211201,0 -7.656743,3.380178 -7.656743,7.511506 0,4.131329 3.445542,7.511507 7.656743,7.511507 4.21122,0 7.65675,-3.380178 7.65675,-7.511507 0,-4.225223 -3.44553,-7.511506 -7.65675,-7.511506 z M 101.37085,15.933961 H 16.380921 c -5.455433,0 -9.9537742,0.5936 -9.9537742,5.945549 v 0 c 0,5.351949 4.2387892,6.454803 9.6942232,6.454803 h 84.98992 z m 2.13317,52.117444 c -2.1056,0 -3.828368,1.690089 -3.828368,3.755753 0,2.065664 1.722768,3.755754 3.828368,3.755754 2.10561,0 3.82838,-1.69009 3.82838,-3.755754 0,-2.159558 -1.72277,-3.755753 -3.82838,-3.755753 z"
       id="XMLID_15_"
       inkscape:connector-curvature="0"
       style="clip-rule:evenodd;opacity:1;fill:#595959;fill-opacity:0.78431374;fill-rule:evenodd;stroke:#ffffff;stroke-width:3.69709325;stroke-miterlimit:4;stroke-dasharray:none;stroke-opacity:1;paint-order:stroke fill markers"
       sodipodi:nodetypes="ssssssssscsscccscssccssssscsccsccsssss" /></g></svg>
