<?xml version="1.0" encoding="UTF-8" standalone="no"?>
<svg
  xmlns:dc="http://purl.org/dc/elements/1.1/"
  xmlns:cc="http://creativecommons.org/ns#"
  xmlns:rdf="http://www.w3.org/1999/02/22-rdf-syntax-ns#"
  xmlns:sodipodi="http://sodipodi.sourceforge.net/DTD/sodipodi-0.dtd"
  xmlns:inkscape="http://www.inkscape.org/namespaces/inkscape"
  xmlns="http://www.w3.org/2000/svg"
  height="28"
  viewBox="0 0 28 28"
  width="28"
  version="1.1"
  id="svg6"
  sodipodi:docname="info.svg"
  inkscape:version="0.92.1 r15371">
  <metadata
    id="metadata12">
    <rdf:RDF>
      <cc:Work
        rdf:about="">
        <dc:format>image/svg+xml</dc:format>
        <dc:type
          rdf:resource="http://purl.org/dc/dcmitype/StillImage"/>
      </cc:Work>
    </rdf:RDF>
  </metadata>
  <defs
    id="defs10"/>
  <sodipodi:namedview
    pagecolor="#ffffff"
    bordercolor="#666666"
    borderopacity="1"
    objecttolerance="10"
    gridtolerance="10"
    guidetolerance="10"
    inkscape:pageopacity="0"
    inkscape:pageshadow="2"
    inkscape:window-width="1920"
    inkscape:window-height="1018"
    id="namedview8"
    showgrid="false"
    inkscape:zoom="27.812867"
    inkscape:cx="22.292834"
    inkscape:cy="16.135516"
    inkscape:window-x="-8"
    inkscape:window-y="-8"
    inkscape:window-maximized="1"
    inkscape:current-layer="svg6"/>
  <path
    d="M0 0h48v48h-48z"
    fill="none"
    id="path2"/>
  <path
    d="M 12.492218,21.688504 H 15.26705 V 11.370779 H 12.492218 Z M 13.950181,0.06368407 c -7.6654732,0 -13.87415929,6.21949123 -13.87415929,13.89830493 0,7.678814 6.20868609,13.898305 13.87415929,13.898305 7.665473,0 13.874159,-6.219491 13.874159,-13.898305 0,-7.6788137 -6.208686,-13.89830493 -13.874159,-13.89830493 z m 0,25.01694893 c -6.1185039,0 -11.0993275,-4.989491 -11.0993275,-11.118644 0,-6.1291526 4.9808236,-11.118644 11.0993275,-11.118644 6.118504,0 11.099327,4.9894914 11.099327,11.118644 0,6.129153 -4.980823,11.118644 -11.099327,11.118644 z M 12.562765,8.8031264 h 2.774832 V 6.0234655 h -2.774832 z"
    id="path4"
    style="fill:#ffdc3a;fill-opacity:1;stroke-width:0.69431138"
    inkscape:connector-curvature="0"
    sodipodi:nodetypes="cccccssssssssssccccc"/>
</svg>
