<?xml version="1.0" ?><!DOCTYPE svg  PUBLIC '-//W3C//DTD SVG 1.1//EN'
        'http://www.w3.org/Graphics/SVG/1.1/DTD/svg11.dtd'>
<svg enable-background="new 0 0 512 512" height="512px" id="Layer_1" version="1.1" viewBox="0 0 512 512" width="512px" xml:space="preserve" xmlns="http://www.w3.org/2000/svg" ><path d="M512.619,432c0,44.182-35.816,80-80,80h-352c-44.183,0-80-35.818-80-80V80c0-44.183,35.817-80,80-80h352  c44.184,0,80,35.817,80,80V432z" fill="#F7F7F7"/><path d="M512.618,432v-53.52l-129.34-129.34L363.71,268.71l-53.63-53.63L131.94,393.22L250.721,512h181.897  C476.802,512,512.618,476.182,512.618,432z" fill="#E5E5E5"/><g><polygon fill="none" points="275.17,255.827 318.814,212.177 318.809,212.177 275.17,255.827 135.86,116.537 135.848,116.537    275.156,255.843 135.631,395.385 135.631,395.385 275.156,255.843 319.006,299.689 319.025,299.689  "/><linearGradient gradientTransform="matrix(0.7071 0.7071 -0.7071 0.7071 -453.2769 -49.6328)" gradientUnits="userSpaceOnUse" id="SVGID_1_" x1="702.4004" x2="518.4658" y1="-286.2603" y2="-401.374"><stop offset="0" style="stop-color:#D6FFA1"/><stop offset="0.3264" style="stop-color:#93E2A7"/><stop offset="1" style="stop-color:#00A3B5"/></linearGradient><path d="M318.809,212.177l-170.084-93.51c-4.821-2.641-9.266-3.257-12.865-2.131l139.31,139.291   L318.809,212.177z" fill="url(#SVGID_1_)"/><linearGradient gradientTransform="matrix(0.7071 0.7071 -0.7071 0.7071 -453.2769 -49.6328)" gradientUnits="userSpaceOnUse" id="SVGID_2_" x1="595.4531" x2="833.9358" y1="-384.5957" y2="-322.2533"><stop offset="0" style="stop-color:#FF177B"/><stop offset="0.6721" style="stop-color:#FFA976"/><stop offset="1" style="stop-color:#FFEC73"/></linearGradient><path d="M319.025,299.689l58.059-31.924c11.777-6.49,11.777-17.076,0-23.542l-58.27-32.046l-43.645,43.65   L319.025,299.689z" fill="url(#SVGID_2_)"/><linearGradient gradientTransform="matrix(0.7071 0.7071 -0.7071 0.7071 -453.2769 -49.6328)" gradientUnits="userSpaceOnUse" id="SVGID_3_" x1="728.582" x2="469.9819" y1="-198.9355" y2="-351.0804"><stop offset="0" style="stop-color:#63FFD4"/><stop offset="0.4854" style="stop-color:#32A0BA"/><stop offset="0.8349" style="stop-color:#1262A9"/><stop offset="1" style="stop-color:#064AA2"/></linearGradient><path d="M135.848,116.537c-5.17,1.621-8.526,6.856-8.526,14.778l0.038,249.352   c0,7.83,3.242,12.998,8.272,14.719l139.525-139.542L135.848,116.537z" fill="url(#SVGID_3_)"/><linearGradient gradientTransform="matrix(0.7071 0.7071 -0.7071 0.7071 -453.2769 -49.6328)" gradientUnits="userSpaceOnUse" id="SVGID_4_" x1="822.4697" x2="663.2418" y1="-319.7422" y2="-109.9672"><stop offset="0" style="stop-color:#FF4521"/><stop offset="0.3411" style="stop-color:#D43E65"/><stop offset="0.7935" style="stop-color:#9F36B9"/><stop offset="1" style="stop-color:#8A33DB"/></linearGradient><path d="M135.631,395.385c3.623,1.225,8.158,0.662,13.093-2.055l170.281-93.641l-43.85-43.847   L135.631,395.385z" fill="url(#SVGID_4_)"/></g></svg>