<?xml version="1.0" encoding="UTF-8" standalone="no"?>
<svg
   xmlns:dc="http://purl.org/dc/elements/1.1/"
   xmlns:cc="http://creativecommons.org/ns#"
   xmlns:rdf="http://www.w3.org/1999/02/22-rdf-syntax-ns#"
   xmlns:sodipodi="http://sodipodi.sourceforge.net/DTD/sodipodi-0.dtd"
   xmlns:inkscape="http://www.inkscape.org/namespaces/inkscape"
   xmlns="http://www.w3.org/2000/svg"
   id="Layer_1"
   style="enable-background:new 0 0 128 128;"
   version="1.1"
   viewBox="0 0 128 128"
   xml:space="preserve"
   sodipodi:docname="if_31_icons_2191528.svg"
   inkscape:version="0.92.1 r15371"><metadata
     id="metadata12"><rdf:RDF><cc:Work
         rdf:about=""><dc:format>image/svg+xml</dc:format><dc:type
           rdf:resource="http://purl.org/dc/dcmitype/StillImage" /></cc:Work></rdf:RDF></metadata><defs
     id="defs10" /><sodipodi:namedview
     pagecolor="#ffffff"
     bordercolor="#666666"
     borderopacity="1"
     objecttolerance="10"
     gridtolerance="10"
     guidetolerance="10"
     inkscape:pageopacity="0"
     inkscape:pageshadow="2"
     inkscape:window-width="1920"
     inkscape:window-height="1018"
     id="namedview8"
     showgrid="false"
     inkscape:zoom="3.6875"
     inkscape:cx="95.487719"
     inkscape:cy="73.702957"
     inkscape:window-x="-8"
     inkscape:window-y="-8"
     inkscape:window-maximized="1"
     inkscape:current-layer="XMLID_10_" /><style
     type="text/css"
     id="style2">
	.st0{fill-rule:evenodd;clip-rule:evenodd;}
	.st1{fill-rule:evenodd;clip-rule:evenodd;fill:#7ACED7;}
</style><g
     id="XMLID_10_"><path
       class="st0"
       d="m 128,34.3 v 82.5 c 0,2.2 -1.8,4 -4,4 H 14.4 C 6.5,120.8 -0.02581949,114.29996 0,106.4 L 0.27118644,23.425424 C 0.29700593,15.525466 6.7711864,13.09322 14.671186,13.09322 h 88.800004 c 2.2,0 4.04516,1.800464 4,4 L 107.2,30.3 H 124 c 2.2,0 4,1.8 4,4 z m -4,0 h -20.8 -7 -81.8 C 10.3,34.3 6.0576271,33.142373 3.4576271,30.342373 L 4,106.3 c 0.0407,5.69985 4.7,10.4 10.4,10.4 H 124 Z m -18.3,34.3 c -4.4,0 -8,3.6 -8,8 0,4.4 3.6,8 8,8 4.4,0 8,-3.6 8,-8 0,-4.5 -3.6,-8 -8,-8 z M 103.47119,17.09322 H 14.671186 c -5.6999996,0 -10.3999996,0.632204 -10.3999996,6.332204 v 0 C 4.2711864,29.125424 8.7,30.3 14.4,30.3 h 88.8 z M 105.7,72.6 c -2.2,0 -4,1.8 -4,4 0,2.2 1.8,4 4,4 2.2,0 4,-1.8 4,-4 0,-2.3 -1.8,-4 -4,-4 z"
       id="XMLID_15_"
       inkscape:connector-curvature="0"
       style="clip-rule:evenodd;fill-rule:evenodd;fill:#ffffff;fill-opacity:1"
       sodipodi:nodetypes="ssssssssscsscccscssccssssscsccsccsssss" /></g></svg>
