<?xml version="1.0" encoding="UTF-8" standalone="no"?>
<svg
   xmlns:dc="http://purl.org/dc/elements/1.1/"
   xmlns:cc="http://creativecommons.org/ns#"
   xmlns:rdf="http://www.w3.org/1999/02/22-rdf-syntax-ns#"
   xmlns:sodipodi="http://sodipodi.sourceforge.net/DTD/sodipodi-0.dtd"
   xmlns:inkscape="http://www.inkscape.org/namespaces/inkscape"
   xmlns="http://www.w3.org/2000/svg"
   id="Layer_1"
   version="1.1"
   viewBox="0 0 20 20"
   width="20"
   height="20"
   xml:space="preserve"
   sodipodi:docname="mail.svg"
   inkscape:version="0.92.1 r15371"><metadata
     id="metadata11"><rdf:RDF><cc:Work
         rdf:about=""><dc:format>image/svg+xml</dc:format><dc:type
           rdf:resource="http://purl.org/dc/dcmitype/StillImage" /><dc:title></dc:title></cc:Work></rdf:RDF></metadata><defs
     id="defs9" /><sodipodi:namedview
     pagecolor="#ffffff"
     bordercolor="#666666"
     borderopacity="1"
     objecttolerance="10"
     gridtolerance="10"
     guidetolerance="10"
     inkscape:pageopacity="0"
     inkscape:pageshadow="2"
     inkscape:window-width="1920"
     inkscape:window-height="1018"
     id="namedview7"
     showgrid="false"
     inkscape:zoom="29.5"
     inkscape:cx="4.5175654"
     inkscape:cy="6.065154"
     inkscape:window-x="-8"
     inkscape:window-y="-8"
     inkscape:window-maximized="1"
     inkscape:current-layer="Layer_1"
     showguides="false" /><g
     id="g4"
     transform="matrix(0.20465802,0,0,0.19290123,-3.0676636,-2.3596973)"
     style="fill:#000000;fill-opacity:0.58823529;stroke:none"><path
       d="m 86.785,109.878 c -8.188,4.317 -16.533,5.962 -26.515,5.962 -24.428,0 -45.133,-17.879 -45.133,-46.479 0,-30.687 21.299,-57.201 54.376,-57.201 25.918,0 43.348,18.175 43.348,43.052 0,22.342 -12.517,35.448 -26.514,35.448 -5.968,0 -11.475,-4.021 -11.025,-13.105 H 74.728 C 69.514,86.342 62.66,90.66 53.721,90.66 c -8.636,0 -16.083,-7 -16.083,-18.764 0,-18.473 14.591,-35.309 35.296,-35.309 6.403,0 12.067,1.34 15.937,3.13 L 83.813,66.68 c -2.232,11.323 -0.45,16.532 4.463,16.685 7.604,0.146 16.095,-9.982 16.095,-27.261 0,-21.602 -12.964,-37.09 -36.06,-37.09 -24.27,0 -44.684,19.212 -44.684,49.456 0,24.877 16.241,40.215 38.28,40.215 8.491,0 16.387,-1.783 22.499,-5.21 z M 78.598,45.527 c -1.493,-0.449 -4.027,-1.043 -7.446,-1.043 -13.112,0 -23.689,12.366 -23.689,26.812 0,6.556 3.275,11.322 9.836,11.322 8.637,0 16.532,-11.025 18.169,-20.256 z"
       style="fill:#000000;fill-opacity:0.58823529;stroke:none;stroke-width:3;stroke-miterlimit:10"
       id="path2"
       inkscape:connector-curvature="0" /></g></svg>
