<?xml version="1.0" encoding="UTF-8" standalone="no"?>
<svg
   xmlns:dc="http://purl.org/dc/elements/1.1/"
   xmlns:cc="http://creativecommons.org/ns#"
   xmlns:rdf="http://www.w3.org/1999/02/22-rdf-syntax-ns#"
   xmlns:sodipodi="http://sodipodi.sourceforge.net/DTD/sodipodi-0.dtd"
   xmlns:inkscape="http://www.inkscape.org/namespaces/inkscape"
   xmlns="http://www.w3.org/2000/svg"
   height="20px"
   id="Layer_1"
   style="enable-background:new 0 0 67 67;"
   version="1.1"
   viewBox="0 0 67 67"
   width="20px"
   xml:space="preserve"
   sodipodi:docname="skype.svg"
   inkscape:version="0.92.1 r15371"><metadata
     id="metadata9"><rdf:RDF><cc:Work
         rdf:about=""><dc:format>image/svg+xml</dc:format><dc:type
           rdf:resource="http://purl.org/dc/dcmitype/StillImage" /></cc:Work></rdf:RDF></metadata><defs
     id="defs7" /><sodipodi:namedview
     pagecolor="#ffffff"
     bordercolor="#666666"
     borderopacity="1"
     objecttolerance="10"
     gridtolerance="10"
     guidetolerance="10"
     inkscape:pageopacity="0"
     inkscape:pageshadow="2"
     inkscape:window-width="1920"
     inkscape:window-height="1018"
     id="namedview5"
     showgrid="false"
     inkscape:zoom="7.0447761"
     inkscape:cx="39.295141"
     inkscape:cy="18.715084"
     inkscape:window-x="-8"
     inkscape:window-y="-8"
     inkscape:window-maximized="1"
     inkscape:current-layer="Layer_1" /><path
     d="m 35.472446,47.360017 c -5.344549,0.285071 -7.844955,-0.926481 -10.136902,-3.127988 -2.559175,-2.459853 -1.531291,-5.264909 0.553305,-5.406331 2.083487,-0.142535 3.334245,2.417538 4.446399,3.131329 1.111045,0.710451 5.335679,2.327339 7.568858,-0.287298 2.429441,-2.844031 -1.616671,-4.315042 -4.583894,-4.76158 -4.234613,-0.64141 -9.582489,-2.987679 -9.166679,-7.612291 0.415811,-4.620158 3.833218,-6.989812 7.429146,-7.32388 4.583894,-0.426493 7.567749,0.710451 9.928443,2.773876 2.728825,2.383017 1.251866,5.046651 -0.485667,5.261568 -1.731988,0.21269 -3.676872,-3.919729 -7.496783,-3.982088 -3.937448,-0.06347 -6.597525,4.195892 -1.737533,5.405217 4.862209,1.209325 10.069264,1.705973 11.944291,6.25709 1.876137,4.55223 -2.915108,9.386191 -8.262984,9.672376 z M 50.542524,36.531766 c 0.100903,-0.75722 0.158562,-1.527803 0.158562,-2.310635 0,-9.405122 -7.522287,-17.030777 -16.800957,-17.030777 -0.922545,0 -1.826239,0.07795 -2.706649,0.224939 -1.577861,-1.047859 -3.456215,-1.658089 -5.4765,-1.658089 -5.539703,0 -10.026019,4.573388 -10.026019,10.216906 0,2.053404 0.593222,3.960931 1.614453,5.562229 -0.137495,0.875258 -0.20846,1.771673 -0.20846,2.683678 0,9.406236 7.518961,17.030776 16.799848,17.030776 1.047842,0 2.067964,-0.103561 3.059256,-0.286184 1.540162,0.97325 3.355312,1.540052 5.300196,1.540052 5.538595,0 10.02602,-4.573388 10.02602,-10.216907 0,-2.133579 -0.639793,-4.116828 -1.73975,-5.755988 z m -17.11032,30.449166 c -18.371058,0 -33.26483112,-14.957328 -33.26483112,-33.406779 0,-18.450565 14.89377312,-33.40678012 33.26483112,-33.40678012 18.371057,0 33.26483,14.95621512 33.26483,33.40678012 0,18.449451 -14.893773,33.406779 -33.26483,33.406779 z"
     style="clip-rule:evenodd;fill:#3e9dd7;fill-rule:evenodd;stroke-width:1.11119103"
     id="path2"
     inkscape:connector-curvature="0" /></svg>
